<?xml version="1.0" encoding="iso-8859-1"?>
<!-- Generator: Adobe Illustrator 19.0.0, SVG Export Plug-In . SVG Version: 6.00 Build 0)  -->
<svg version="1.1" id="Capa_1" xmlns="http://www.w3.org/2000/svg" xmlns:xlink="http://www.w3.org/1999/xlink" x="0px" y="0px"
	 viewBox="0 0 469.358 469.358" style="enable-background:new 0 0 469.358 469.358;" xml:space="preserve">
<path style="fill:#446483;" d="M256.003,469.346H42.667C19.103,469.346,0,450.243,0,426.679V42.683
	C0,19.119,19.103,0.016,42.667,0.016h213.336c23.564,0,42.667,19.103,42.667,42.667v383.996
	C298.67,450.243,279.567,469.346,256.003,469.346z"/>
<path style="fill:#2C5073;" d="M10.673,42.679L10.673,42.679c5.891,0,10.667,4.776,10.667,10.667v362.666
	c0,5.891-4.776,10.667-10.667,10.667l0,0c-5.891,0-10.667-4.776-10.667-10.667V53.346C0.006,47.455,4.782,42.679,10.673,42.679z"/>
<path style="fill:#0F3860;" d="M256.01,448.012H64.006c-11.782,0-21.333-9.551-21.333-21.333V42.675
	c0-11.782,9.551-21.333,21.333-21.333H256.01c11.782,0,21.333,9.551,21.333,21.333v384.004
	C277.343,438.461,267.792,448.012,256.01,448.012z"/>
<path style="fill:#83FF36;" d="M85.336,85.349H234.67c11.782,0,21.333,9.551,21.333,21.333v234.664
	c0,11.782-9.551,21.333-21.333,21.333H85.336c-11.782,0-21.333-9.551-21.333-21.333V106.682
	C64.003,94.9,73.554,85.349,85.336,85.349z"/>
<path style="fill:#C4FF9F;" d="M106.676,106.679H213.34c11.782,0,21.333,9.551,21.333,21.333v0.001
	c0,11.782-9.551,21.333-21.333,21.333H106.676c-11.782,0-21.333-9.551-21.333-21.333v-0.001
	C85.343,116.23,94.894,106.679,106.676,106.679z"/>
<g>
	<path style="fill:#002A56;" d="M160.01,42.679h42.666c5.891,0,10.667,4.776,10.667,10.667l0,0c0,5.891-4.776,10.666-10.667,10.666
		H160.01c-5.891,0-10.667-4.776-10.667-10.666l0,0C149.343,47.455,154.119,42.679,160.01,42.679z"/>
	<circle style="fill:#002A56;" cx="117.343" cy="53.349" r="10.667"/>
</g>
<path style="fill:#5E7994;" d="M10.673,85.349h21.333c5.891,0,10.667,4.776,10.667,10.667v63.996
	c0,5.891-4.776,10.667-10.667,10.667H10.673c-5.891,0-10.667-4.776-10.667-10.667V96.016C0.006,90.125,4.782,85.349,10.673,85.349z"
	/>
<path style="fill:#4C6A88;" d="M10.673,85.349L10.673,85.349c5.891,0,10.667,4.776,10.667,10.667v63.996
	c0,5.891-4.776,10.667-10.667,10.667l0,0c-5.891,0-10.667-4.776-10.667-10.667V96.016C0.006,90.125,4.782,85.349,10.673,85.349z"/>
<path style="fill:#5E7994;" d="M10.673,213.349h21.333c5.891,0,10.667,4.776,10.667,10.667v63.996
	c0,5.891-4.776,10.667-10.667,10.667H10.673c-5.891,0-10.667-4.776-10.667-10.667v-63.996
	C0.006,218.125,4.782,213.349,10.673,213.349z"/>
<path style="fill:#4C6A88;" d="M10.673,213.349L10.673,213.349c5.891,0,10.667,4.776,10.667,10.667v63.996
	c0,5.891-4.776,10.667-10.667,10.667l0,0c-5.891,0-10.667-4.776-10.667-10.667v-63.996C0.006,218.125,4.782,213.349,10.673,213.349z
	"/>
<path style="fill:#2C5073;" d="M53.34,448.009h191.996c5.891,0,10.667,4.776,10.667,10.667l0,0c0,5.891-4.776,10.667-10.667,10.667
	H53.34c-5.891,0-10.667-4.776-10.667-10.667l0,0C42.673,452.785,47.449,448.009,53.34,448.009z"/>
<path style="fill:#002A56;" d="M149.336,384.009h21.334c11.782,0,21.333,9.551,21.333,21.333v0.001
	c0,11.782-9.551,21.333-21.333,21.333h-21.334c-11.782,0-21.333-9.551-21.333-21.333v-0.001
	C128.003,393.56,137.554,384.009,149.336,384.009z"/>
<path style="fill:#21B950;" d="M341.34,0.012c-70.584-0.108-127.892,57.024-128,127.609c-0.036,23.616,6.472,46.781,18.802,66.923
	l-9.966,9.965c-11.781,11.782-11.781,30.884,0,42.667h0.001c11.781,11.782,30.881,11.783,42.663,0.002
	c0.001-0.001,0.001-0.001,0.002-0.002l9.965-9.965c60.339,36.775,139.065,17.673,175.84-42.665S468.32,55.48,407.982,18.705
	C387.907,6.47,364.849,0.002,341.34,0.012z"/>
<circle style="fill:#34CB60;" cx="341.343" cy="128.009" r="106.67"/>
<path style="fill:#009C52;" d="M341.34,256.012c-23.487-0.029-46.512-6.535-66.542-18.802l-9.958,9.969
	c-11.354,11.385-31.229,11.396-42.667,0.01c-4.175-4.161-4.186-10.919-0.024-15.094c4.161-4.175,10.919-4.186,15.094-0.024
	c0.005,0.005,0.009,0.009,0.014,0.014c3.476,3.388,9.018,3.393,12.5,0.01l15.896-15.906c3.481-3.49,8.901-4.136,13.104-1.563
	l7.167,4.375c50.222,30.67,115.798,14.819,146.468-35.404c21.418-35.072,20.757-79.335-1.697-113.753
	c-3.219-4.938-1.826-11.55,3.112-14.769c4.934-3.217,11.541-1.828,14.763,3.103c38.596,59.193,21.899,138.467-37.294,177.062
	C390.473,248.805,366.173,256.022,341.34,256.012L341.34,256.012z"/>
<g>
	<circle style="fill:#0F3860;" cx="160.003" cy="224.009" r="32"/>
	<path style="fill:#0F3860;" d="M128.006,277.349h64.004c11.782,0,21.333,9.551,21.333,21.333v0.001
		c0,11.782-9.551,21.333-21.333,21.333h-64.004c-11.782,0-21.333-9.551-21.333-21.333v-0.001
		C106.673,286.9,116.224,277.349,128.006,277.349z"/>
</g>
<path style="fill:#83FF36;" d="M448.006,128.012C447.937,69.131,400.221,21.415,341.34,21.346
	c-5.891-0.006-10.672,4.765-10.678,10.656c-0.006,5.891,4.764,10.672,10.656,10.678c0.007,0,0.015,0,0.022,0
	c47.107,0.05,85.283,38.226,85.333,85.333c-0.074,18.895-6.49,37.218-18.217,52.033l-38.241-38.241
	c-4.162-4.166-10.914-4.17-15.081-0.007c-0.813,0.812-1.489,1.75-2.003,2.778l-14.708,29.427l-43.083-43.063l29.438-14.719
	c5.271-2.646,7.399-9.063,4.753-14.334c-0.51-1.016-1.179-1.945-1.982-2.75l-46.521-46.521c-4.232-4-10.851-4-15.083,0
	c-41.664,41.619-41.701,109.133-0.082,150.797s109.133,41.701,150.797,0.082c0.026-0.026,0.051-0.051,0.077-0.077
	c0.016-0.016,0.021-0.04,0.036-0.056C436.82,183.419,448.066,156.29,448.006,128.012z M341.34,213.346
	c-47.112,0.016-85.317-38.163-85.333-85.275c-0.006-18.962,6.305-37.385,17.938-52.36l28.063,28.042l-29.438,14.719
	c-5.271,2.646-7.399,9.063-4.753,14.334c0.51,1.016,1.179,1.945,1.982,2.75l64,64c4.162,4.166,10.914,4.17,15.081,0.007
	c0.813-0.812,1.489-1.75,2.003-2.778l14.708-29.427l28.063,28.042C378.713,207.063,360.294,213.382,341.34,213.346z"/>
<g>
</g>
<g>
</g>
<g>
</g>
<g>
</g>
<g>
</g>
<g>
</g>
<g>
</g>
<g>
</g>
<g>
</g>
<g>
</g>
<g>
</g>
<g>
</g>
<g>
</g>
<g>
</g>
<g>
</g>
</svg>
